# MagicaVoxel @ Ephtracy

# group
o 

# material
mtllib supul1.mtl
usemtl palette

# normals
vn -1 0 0
vn 1 0 0
vn 0 0 1
vn 0 0 -1
vn 0 -1 0
vn 0 1 0

# texcoords
vt 0.841797 0.5
vt 0.857422 0.5

# verts
v 0 0.4 0
v 0 0.4 -0.8
v 0 0.5 0
v 0 0.5 -0.1
v 0 0.6 0
v 0 0.6 -0.1
v 0 1 0
v 0 1 -0.1
v 0 1.1 -0.1
v 0 1.1 -0.8
v 0.1 0.5 0
v 0.1 0.5 -0.1
v 0.1 0.6 0
v 0.1 0.6 -0.1
v 0.1 1 0
v 0.1 1 -0.1
v 0.1 1.1 0
v 0.1 1.1 -0.1
v 0.1 1.1 -0.8
v 0.1 1.2 -0.1
v 0.1 1.2 -0.8
v 0.7 0.8 0
v 0.7 0.8 -0.1
v 0.7 0.9 0
v 0.7 0.9 -0.1
v 0.7 1.1 -0.1
v 0.7 1.1 -0.8
v 0.7 1.2 -0.1
v 0.7 1.2 -0.8
v 0.8 0.4 0
v 0.8 0.4 -0.8
v 0.8 0.8 0
v 0.8 0.8 -0.1
v 0.8 0.9 0
v 0.8 0.9 -0.1
v 0.8 1.1 0
v 0.8 1.1 -0.8
v 0 0.4 0
v 0 0.5 0
v 0 0.6 0
v 0 1 0
v 0.1 0.5 0
v 0.1 0.6 0
v 0.1 1 0
v 0.1 1.1 0
v 0.7 0.8 0
v 0.7 0.9 0
v 0.8 0.4 0
v 0.8 0.8 0
v 0.8 0.9 0
v 0.8 1.1 0
v 0 0.5 -0.1
v 0 0.6 -0.1
v 0 1 -0.1
v 0 1.1 -0.1
v 0.1 0.5 -0.1
v 0.1 0.6 -0.1
v 0.1 1 -0.1
v 0.1 1.1 -0.1
v 0.1 1.2 -0.1
v 0.7 0.8 -0.1
v 0.7 0.9 -0.1
v 0.7 1.1 -0.1
v 0.7 1.2 -0.1
v 0.8 0.8 -0.1
v 0.8 0.9 -0.1
v 0 0.4 -0.8
v 0 1.1 -0.8
v 0.1 0.4 -0.8
v 0.1 1.1 -0.8
v 0.1 1.2 -0.8
v 0.7 0.4 -0.8
v 0.7 1.1 -0.8
v 0.7 1.2 -0.8
v 0.8 0.4 -0.8
v 0.8 1.1 -0.8
v 0 0.4 0
v 0.8 0.4 0
v 0.1 0.4 -0.1
v 0.7 0.4 -0.1
v 0 0.4 -0.8
v 0.1 0.4 -0.8
v 0.7 0.4 -0.8
v 0.8 0.4 -0.8
v 0 0.6 0
v 0.1 0.6 0
v 0 0.6 -0.1
v 0.1 0.6 -0.1
v 0.7 0.9 0
v 0.8 0.9 0
v 0.7 0.9 -0.1
v 0.8 0.9 -0.1
v 0 0.5 0
v 0.1 0.5 0
v 0 0.5 -0.1
v 0.1 0.5 -0.1
v 0.7 0.8 0
v 0.8 0.8 0
v 0.7 0.8 -0.1
v 0.8 0.8 -0.1
v 0 1 0
v 0.1 1 0
v 0 1 -0.1
v 0.1 1 -0.1
v 0.1 1.1 0
v 0.8 1.1 0
v 0 1.1 -0.1
v 0.1 1.1 -0.1
v 0.7 1.1 -0.1
v 0 1.1 -0.8
v 0.1 1.1 -0.8
v 0.7 1.1 -0.8
v 0.8 1.1 -0.8
v 0.1 1.2 -0.1
v 0.7 1.2 -0.1
v 0.1 1.2 -0.8
v 0.7 1.2 -0.8

# faces
f 3/2/1 2/2/1 1/2/1
f 4/2/1 2/2/1 3/2/1
f 6/2/1 2/2/1 4/2/1
f 7/2/1 6/2/1 5/2/1
f 8/2/1 2/2/1 6/2/1
f 8/2/1 6/2/1 7/2/1
f 9/2/1 2/2/1 8/2/1
f 10/2/1 2/2/1 9/2/1
f 13/2/1 12/2/1 11/2/1
f 14/2/1 12/2/1 13/2/1
f 17/2/1 16/2/1 15/2/1
f 18/2/1 16/2/1 17/2/1
f 20/1/1 19/1/1 18/1/1
f 21/1/1 19/1/1 20/1/1
f 22/2/2 23/2/2 24/2/2
f 24/2/2 23/2/2 25/2/2
f 26/1/2 27/1/2 28/1/2
f 28/1/2 27/1/2 29/1/2
f 30/2/2 31/2/2 32/2/2
f 32/2/2 31/2/2 33/2/2
f 33/2/2 31/2/2 35/2/2
f 34/2/2 35/2/2 36/2/2
f 35/2/2 31/2/2 37/2/2
f 36/2/2 35/2/2 37/2/2
f 42/2/3 39/2/3 38/2/3
f 43/2/3 41/2/3 40/2/3
f 44/2/3 41/2/3 43/2/3
f 46/2/3 43/2/3 42/2/3
f 46/2/3 45/2/3 44/2/3
f 46/2/3 44/2/3 43/2/3
f 47/2/3 45/2/3 46/2/3
f 48/2/3 42/2/3 38/2/3
f 48/2/3 46/2/3 42/2/3
f 49/2/3 46/2/3 48/2/3
f 50/2/3 45/2/3 47/2/3
f 51/2/3 45/2/3 50/2/3
f 56/2/3 53/2/3 52/2/3
f 57/2/3 53/2/3 56/2/3
f 58/2/3 55/2/3 54/2/3
f 59/2/3 55/2/3 58/2/3
f 63/1/3 60/1/3 59/1/3
f 64/1/3 60/1/3 63/1/3
f 65/2/3 62/2/3 61/2/3
f 66/2/3 62/2/3 65/2/3
f 67/2/4 68/2/4 69/2/4
f 69/2/4 68/2/4 70/2/4
f 69/1/4 70/1/4 72/1/4
f 70/1/4 71/1/4 72/1/4
f 72/1/4 71/1/4 73/1/4
f 73/1/4 71/1/4 74/1/4
f 72/2/4 73/2/4 75/2/4
f 75/2/4 73/2/4 76/2/4
f 79/2/5 78/2/5 77/2/5
f 80/2/5 78/2/5 79/2/5
f 81/2/5 79/2/5 77/2/5
f 82/1/5 80/1/5 79/1/5
f 82/2/5 79/2/5 81/2/5
f 83/2/5 78/2/5 80/2/5
f 83/1/5 80/1/5 82/1/5
f 84/2/5 78/2/5 83/2/5
f 87/2/5 86/2/5 85/2/5
f 88/2/5 86/2/5 87/2/5
f 91/2/5 90/2/5 89/2/5
f 92/2/5 90/2/5 91/2/5
f 93/2/6 94/2/6 95/2/6
f 95/2/6 94/2/6 96/2/6
f 97/2/6 98/2/6 99/2/6
f 99/2/6 98/2/6 100/2/6
f 101/2/6 102/2/6 103/2/6
f 103/2/6 102/2/6 104/2/6
f 105/2/6 106/2/6 108/2/6
f 108/2/6 106/2/6 109/2/6
f 107/2/6 108/2/6 110/2/6
f 110/2/6 108/2/6 111/2/6
f 109/2/6 106/2/6 112/2/6
f 112/2/6 106/2/6 113/2/6
f 114/1/6 115/1/6 116/1/6
f 116/1/6 115/1/6 117/1/6
