# MagicaVoxel @ Ephtracy

# group
o 

# material
mtllib mirror.mtl
usemtl palette

# normals
vn -1 0 0
vn 1 0 0
vn 0 0 1
vn 0 0 -1
vn 0 -1 0
vn 0 1 0

# texcoords
vt 0.00195313 0.5
vt 0.142578 0.5
vt 0.841797 0.5

# verts
v 0 0.3 0
v 0 0.3 -0.2
v 0 1.5 0
v 0 1.5 -0.2
v 0.1 0.3 -0.2
v 0.1 0.3 -0.3
v 0.1 1.5 -0.2
v 0.1 1.5 -0.3
v 0.3 0.2 0
v 0.3 0.2 -0.3
v 0.3 0.3 0
v 0.3 0.3 -0.3
v 0.3 0.4 -0.3
v 0.3 0.4 -0.5
v 0.3 1.4 -0.3
v 0.3 1.4 -0.5
v 0.3 1.5 0
v 0.3 1.5 -0.3
v 0.3 1.6 0
v 0.3 1.6 -0.3
v 0.5 0.1 -0.1
v 0.5 0.1 -0.2
v 0.5 0.2 -0.1
v 0.5 0.2 -0.2
v 0.5 1.6 -0.1
v 0.5 1.6 -0.2
v 0.5 1.7 -0.1
v 0.5 1.7 -0.2
v 0.6 0.1 -0.1
v 0.6 0.1 -0.2
v 0.6 0.2 -0.1
v 0.6 0.2 -0.2
v 0.6 1.6 -0.1
v 0.6 1.6 -0.2
v 0.6 1.7 -0.1
v 0.6 1.7 -0.2
v 0.8 0.2 0
v 0.8 0.2 -0.3
v 0.8 0.3 0
v 0.8 0.3 -0.3
v 0.8 0.4 -0.3
v 0.8 0.4 -0.5
v 0.8 1.4 -0.3
v 0.8 1.4 -0.5
v 0.8 1.5 0
v 0.8 1.5 -0.3
v 0.8 1.6 0
v 0.8 1.6 -0.3
v 1 0.3 -0.2
v 1 0.3 -0.3
v 1 1.5 -0.2
v 1 1.5 -0.3
v 1.1 0.3 0
v 1.1 0.3 -0.2
v 1.1 1.5 0
v 1.1 1.5 -0.2
v 0 0.3 0
v 0 1.5 0
v 0.1 0.4 0
v 0.1 0.5 0
v 0.1 0.9 0
v 0.1 1 0
v 0.1 1.4 0
v 0.2 0.5 0
v 0.2 0.6 0
v 0.2 0.9 0
v 0.2 1 0
v 0.2 1.1 0
v 0.2 1.3 0
v 0.2 1.4 0
v 0.3 0.2 0
v 0.3 0.3 0
v 0.3 0.6 0
v 0.3 0.7 0
v 0.3 1 0
v 0.3 1.1 0
v 0.3 1.2 0
v 0.3 1.3 0
v 0.3 1.4 0
v 0.3 1.5 0
v 0.3 1.6 0
v 0.4 0.4 0
v 0.4 0.5 0
v 0.4 0.7 0
v 0.4 0.8 0
v 0.4 1.1 0
v 0.4 1.2 0
v 0.4 1.3 0
v 0.5 0.5 0
v 0.5 0.6 0
v 0.5 0.8 0
v 0.5 0.9 0
v 0.5 1.2 0
v 0.5 1.3 0
v 0.5 1.4 0
v 0.6 0.6 0
v 0.6 0.7 0
v 0.6 0.9 0
v 0.6 1 0
v 0.6 1.3 0
v 0.6 1.4 0
v 0.7 0.4 0
v 0.7 0.5 0
v 0.7 0.7 0
v 0.7 0.8 0
v 0.7 1 0
v 0.7 1.1 0
v 0.8 0.2 0
v 0.8 0.3 0
v 0.8 0.4 0
v 0.8 0.5 0
v 0.8 0.6 0
v 0.8 0.8 0
v 0.8 0.9 0
v 0.8 1.1 0
v 0.8 1.2 0
v 0.8 1.5 0
v 0.8 1.6 0
v 0.9 0.5 0
v 0.9 0.6 0
v 0.9 0.7 0
v 0.9 0.9 0
v 0.9 1 0
v 0.9 1.2 0
v 0.9 1.3 0
v 1 0.4 0
v 1 0.6 0
v 1 0.7 0
v 1 1 0
v 1 1.3 0
v 1 1.4 0
v 1.1 0.3 0
v 1.1 1.5 0
v 0.5 0.1 -0.1
v 0.5 0.2 -0.1
v 0.5 1.6 -0.1
v 0.5 1.7 -0.1
v 0.6 0.1 -0.1
v 0.6 0.2 -0.1
v 0.6 1.6 -0.1
v 0.6 1.7 -0.1
v 0 0.3 -0.2
v 0 1.5 -0.2
v 0.1 0.3 -0.2
v 0.1 1.5 -0.2
v 0.5 0.1 -0.2
v 0.5 0.2 -0.2
v 0.5 1.6 -0.2
v 0.5 1.7 -0.2
v 0.6 0.1 -0.2
v 0.6 0.2 -0.2
v 0.6 1.6 -0.2
v 0.6 1.7 -0.2
v 1 0.3 -0.2
v 1 1.5 -0.2
v 1.1 0.3 -0.2
v 1.1 1.5 -0.2
v 0.1 0.3 -0.3
v 0.1 1.5 -0.3
v 0.3 0.2 -0.3
v 0.3 0.3 -0.3
v 0.3 0.4 -0.3
v 0.3 1.4 -0.3
v 0.3 1.5 -0.3
v 0.3 1.6 -0.3
v 0.8 0.2 -0.3
v 0.8 0.3 -0.3
v 0.8 0.4 -0.3
v 0.8 1.4 -0.3
v 0.8 1.5 -0.3
v 0.8 1.6 -0.3
v 1 0.3 -0.3
v 1 1.5 -0.3
v 0.3 0.4 -0.5
v 0.3 1.4 -0.5
v 0.8 0.4 -0.5
v 0.8 1.4 -0.5
v 0.5 0.1 -0.1
v 0.6 0.1 -0.1
v 0.5 0.1 -0.2
v 0.6 0.1 -0.2
v 0.3 0.2 0
v 0.8 0.2 0
v 0.5 0.2 -0.1
v 0.6 0.2 -0.1
v 0.5 0.2 -0.2
v 0.6 0.2 -0.2
v 0.3 0.2 -0.3
v 0.8 0.2 -0.3
v 0 0.3 0
v 0.3 0.3 0
v 0.8 0.3 0
v 1.1 0.3 0
v 0 0.3 -0.2
v 0.1 0.3 -0.2
v 1 0.3 -0.2
v 1.1 0.3 -0.2
v 0.1 0.3 -0.3
v 0.3 0.3 -0.3
v 0.8 0.3 -0.3
v 1 0.3 -0.3
v 0.3 0.4 -0.3
v 0.8 0.4 -0.3
v 0.3 0.4 -0.5
v 0.8 0.4 -0.5
v 0.3 1.4 -0.3
v 0.8 1.4 -0.3
v 0.3 1.4 -0.5
v 0.8 1.4 -0.5
v 0 1.5 0
v 0.3 1.5 0
v 0.8 1.5 0
v 1.1 1.5 0
v 0 1.5 -0.2
v 0.1 1.5 -0.2
v 1 1.5 -0.2
v 1.1 1.5 -0.2
v 0.1 1.5 -0.3
v 0.3 1.5 -0.3
v 0.8 1.5 -0.3
v 1 1.5 -0.3
v 0.3 1.6 0
v 0.8 1.6 0
v 0.5 1.6 -0.1
v 0.6 1.6 -0.1
v 0.5 1.6 -0.2
v 0.6 1.6 -0.2
v 0.3 1.6 -0.3
v 0.8 1.6 -0.3
v 0.5 1.7 -0.1
v 0.6 1.7 -0.1
v 0.5 1.7 -0.2
v 0.6 1.7 -0.2

# faces
f 3/3/1 2/3/1 1/3/1
f 4/3/1 2/3/1 3/3/1
f 7/3/1 6/3/1 5/3/1
f 8/3/1 6/3/1 7/3/1
f 11/3/1 10/3/1 9/3/1
f 12/3/1 10/3/1 11/3/1
f 15/3/1 14/3/1 13/3/1
f 16/3/1 14/3/1 15/3/1
f 19/3/1 18/3/1 17/3/1
f 20/3/1 18/3/1 19/3/1
f 23/2/1 22/2/1 21/2/1
f 24/2/1 22/2/1 23/2/1
f 27/2/1 26/2/1 25/2/1
f 28/2/1 26/2/1 27/2/1
f 29/2/2 30/2/2 31/2/2
f 31/2/2 30/2/2 32/2/2
f 33/2/2 34/2/2 35/2/2
f 35/2/2 34/2/2 36/2/2
f 37/3/2 38/3/2 39/3/2
f 39/3/2 38/3/2 40/3/2
f 41/3/2 42/3/2 43/3/2
f 43/3/2 42/3/2 44/3/2
f 45/3/2 46/3/2 47/3/2
f 47/3/2 46/3/2 48/3/2
f 49/3/2 50/3/2 51/3/2
f 51/3/2 50/3/2 52/3/2
f 53/3/2 54/3/2 55/3/2
f 55/3/2 54/3/2 56/3/2
f 59/3/3 58/3/3 57/3/3
f 60/3/3 58/3/3 59/3/3
f 61/3/3 58/3/3 60/3/3
f 62/3/3 58/3/3 61/3/3
f 63/3/3 58/3/3 62/3/3
f 64/1/3 60/1/3 59/1/3
f 64/2/3 61/2/3 60/2/3
f 65/2/3 61/2/3 64/2/3
f 66/1/3 62/1/3 61/1/3
f 66/2/3 61/2/3 65/2/3
f 67/2/3 63/2/3 62/2/3
f 67/1/3 62/1/3 66/1/3
f 68/2/3 63/2/3 67/2/3
f 69/2/3 63/2/3 68/2/3
f 70/3/3 58/3/3 63/3/3
f 70/2/3 63/2/3 69/2/3
f 72/3/3 59/3/3 57/3/3
f 73/2/3 66/2/3 65/2/3
f 73/1/3 65/1/3 64/1/3
f 73/2/3 67/2/3 66/2/3
f 74/2/3 67/2/3 73/2/3
f 75/1/3 68/1/3 67/1/3
f 75/2/3 67/2/3 74/2/3
f 76/2/3 69/2/3 68/2/3
f 76/1/3 68/1/3 75/1/3
f 77/2/3 69/2/3 76/2/3
f 78/1/3 70/1/3 69/1/3
f 78/2/3 69/2/3 77/2/3
f 79/3/3 58/3/3 70/3/3
f 79/1/3 70/1/3 78/1/3
f 80/3/3 58/3/3 79/3/3
f 82/3/3 72/3/3 71/3/3
f 82/3/3 59/3/3 72/3/3
f 82/1/3 64/1/3 59/1/3
f 82/1/3 74/1/3 73/1/3
f 82/1/3 73/1/3 64/1/3
f 83/1/3 74/1/3 82/1/3
f 84/2/3 75/2/3 74/2/3
f 84/1/3 74/1/3 83/1/3
f 84/2/3 76/2/3 75/2/3
f 85/2/3 76/2/3 84/2/3
f 86/1/3 77/1/3 76/1/3
f 86/2/3 76/2/3 85/2/3
f 87/2/3 78/2/3 77/2/3
f 87/1/3 77/1/3 86/1/3
f 87/2/3 79/2/3 78/2/3
f 88/2/3 79/2/3 87/2/3
f 89/2/3 83/2/3 82/2/3
f 89/1/3 84/1/3 83/1/3
f 89/1/3 85/1/3 84/1/3
f 90/1/3 85/1/3 89/1/3
f 91/2/3 86/2/3 85/2/3
f 91/1/3 85/1/3 90/1/3
f 91/2/3 87/2/3 86/2/3
f 92/2/3 87/2/3 91/2/3
f 93/1/3 88/1/3 87/1/3
f 93/2/3 87/2/3 92/2/3
f 94/2/3 79/2/3 88/2/3
f 94/1/3 88/1/3 93/1/3
f 95/3/3 81/3/3 80/3/3
f 95/2/3 79/2/3 94/2/3
f 95/3/3 80/3/3 79/3/3
f 96/2/3 90/2/3 89/2/3
f 96/1/3 91/1/3 90/1/3
f 96/1/3 92/1/3 91/1/3
f 97/1/3 92/1/3 96/1/3
f 98/2/3 93/2/3 92/2/3
f 98/1/3 92/1/3 97/1/3
f 98/2/3 94/2/3 93/2/3
f 99/2/3 94/2/3 98/2/3
f 100/1/3 95/1/3 94/1/3
f 100/2/3 94/2/3 99/2/3
f 101/3/3 81/3/3 95/3/3
f 101/1/3 95/1/3 100/1/3
f 102/2/3 97/2/3 96/2/3
f 102/2/3 96/2/3 89/2/3
f 102/2/3 89/2/3 82/2/3
f 102/3/3 82/3/3 71/3/3
f 103/2/3 97/2/3 102/2/3
f 104/1/3 99/1/3 98/1/3
f 104/2/3 97/2/3 103/2/3
f 104/1/3 98/1/3 97/1/3
f 105/1/3 99/1/3 104/1/3
f 106/2/3 100/2/3 99/2/3
f 106/1/3 99/1/3 105/1/3
f 106/2/3 101/2/3 100/2/3
f 107/2/3 101/2/3 106/2/3
f 108/3/3 102/3/3 71/3/3
f 109/3/3 102/3/3 108/3/3
f 110/1/3 103/1/3 102/1/3
f 110/3/3 102/3/3 109/3/3
f 111/2/3 105/2/3 104/2/3
f 111/1/3 103/1/3 110/1/3
f 111/2/3 104/2/3 103/2/3
f 112/2/3 105/2/3 111/2/3
f 113/1/3 106/1/3 105/1/3
f 113/2/3 105/2/3 112/2/3
f 113/1/3 107/1/3 106/1/3
f 114/1/3 107/1/3 113/1/3
f 115/2/3 101/2/3 107/2/3
f 115/1/3 107/1/3 114/1/3
f 116/2/3 101/2/3 115/2/3
f 117/3/3 81/3/3 101/3/3
f 118/3/3 81/3/3 117/3/3
f 119/1/3 112/1/3 111/1/3
f 119/2/3 111/2/3 110/2/3
f 120/2/3 114/2/3 113/2/3
f 120/1/3 112/1/3 119/1/3
f 120/2/3 113/2/3 112/2/3
f 121/2/3 114/2/3 120/2/3
f 122/1/3 116/1/3 115/1/3
f 122/2/3 114/2/3 121/2/3
f 122/1/3 115/1/3 114/1/3
f 123/1/3 116/1/3 122/1/3
f 124/2/3 101/2/3 116/2/3
f 124/1/3 116/1/3 123/1/3
f 125/2/3 101/2/3 124/2/3
f 126/3/3 110/3/3 109/3/3
f 126/2/3 119/2/3 110/2/3
f 126/2/3 120/2/3 119/2/3
f 127/1/3 121/1/3 120/1/3
f 127/2/3 120/2/3 126/2/3
f 128/2/3 123/2/3 122/2/3
f 128/1/3 121/1/3 127/1/3
f 128/2/3 122/2/3 121/2/3
f 129/1/3 125/1/3 124/1/3
f 129/2/3 123/2/3 128/2/3
f 129/1/3 124/1/3 123/1/3
f 130/2/3 101/2/3 125/2/3
f 130/1/3 125/1/3 129/1/3
f 131/3/3 117/3/3 101/3/3
f 131/2/3 101/2/3 130/2/3
f 132/3/3 129/3/3 128/3/3
f 132/3/3 127/3/3 126/3/3
f 132/3/3 131/3/3 130/3/3
f 132/3/3 126/3/3 109/3/3
f 132/3/3 130/3/3 129/3/3
f 132/3/3 128/3/3 127/3/3
f 133/3/3 117/3/3 131/3/3
f 133/3/3 131/3/3 132/3/3
f 138/2/3 135/2/3 134/2/3
f 139/2/3 135/2/3 138/2/3
f 140/2/3 137/2/3 136/2/3
f 141/2/3 137/2/3 140/2/3
f 142/3/4 143/3/4 144/3/4
f 144/3/4 143/3/4 145/3/4
f 146/2/4 147/2/4 150/2/4
f 150/2/4 147/2/4 151/2/4
f 148/2/4 149/2/4 152/2/4
f 152/2/4 149/2/4 153/2/4
f 154/3/4 155/3/4 156/3/4
f 156/3/4 155/3/4 157/3/4
f 158/3/4 159/3/4 161/3/4
f 161/3/4 159/3/4 162/3/4
f 162/3/4 159/3/4 163/3/4
f 163/3/4 159/3/4 164/3/4
f 160/3/4 161/3/4 166/3/4
f 161/3/4 162/3/4 166/3/4
f 166/3/4 162/3/4 167/3/4
f 167/3/4 162/3/4 168/3/4
f 164/3/4 165/3/4 169/3/4
f 163/3/4 164/3/4 169/3/4
f 169/3/4 165/3/4 170/3/4
f 170/3/4 165/3/4 171/3/4
f 167/3/4 168/3/4 172/3/4
f 169/3/4 170/3/4 172/3/4
f 168/3/4 169/3/4 172/3/4
f 172/3/4 170/3/4 173/3/4
f 174/3/4 175/3/4 176/3/4
f 176/3/4 175/3/4 177/3/4
f 180/2/5 179/2/5 178/2/5
f 181/2/5 179/2/5 180/2/5
f 184/3/5 183/3/5 182/3/5
f 185/3/5 183/3/5 184/3/5
f 186/3/5 184/3/5 182/3/5
f 187/3/5 183/3/5 185/3/5
f 188/3/5 186/3/5 182/3/5
f 188/3/5 187/3/5 186/3/5
f 189/3/5 183/3/5 187/3/5
f 189/3/5 187/3/5 188/3/5
f 194/3/5 191/3/5 190/3/5
f 195/3/5 191/3/5 194/3/5
f 196/3/5 193/3/5 192/3/5
f 197/3/5 193/3/5 196/3/5
f 198/3/5 191/3/5 195/3/5
f 199/3/5 191/3/5 198/3/5
f 200/3/5 196/3/5 192/3/5
f 201/3/5 196/3/5 200/3/5
f 204/3/5 203/3/5 202/3/5
f 205/3/5 203/3/5 204/3/5
f 206/3/6 207/3/6 208/3/6
f 208/3/6 207/3/6 209/3/6
f 210/3/6 211/3/6 214/3/6
f 214/3/6 211/3/6 215/3/6
f 212/3/6 213/3/6 216/3/6
f 216/3/6 213/3/6 217/3/6
f 215/3/6 211/3/6 218/3/6
f 218/3/6 211/3/6 219/3/6
f 212/3/6 216/3/6 220/3/6
f 220/3/6 216/3/6 221/3/6
f 222/3/6 223/3/6 224/3/6
f 224/3/6 223/3/6 225/3/6
f 222/3/6 224/3/6 226/3/6
f 225/3/6 223/3/6 227/3/6
f 222/3/6 226/3/6 228/3/6
f 226/3/6 227/3/6 228/3/6
f 227/3/6 223/3/6 229/3/6
f 228/3/6 227/3/6 229/3/6
f 230/2/6 231/2/6 232/2/6
f 232/2/6 231/2/6 233/2/6
